<svg width="97" height="81" viewBox="0 0 97 81" fill="none" xmlns="http://www.w3.org/2000/svg">
<g clip-path="url(#clip0_140_194)">
<path d="M83.8302 0.500099H13.1693C6.41669 0.500099 0.942627 5.97417 0.942627 12.7268V68.2734C0.942627 75.026 6.41669 80.5001 13.1693 80.5001H83.8302C90.5828 80.5001 96.0569 75.026 96.0569 68.2734V12.7268C96.0569 5.97417 90.5828 0.500099 83.8302 0.500099Z" fill="url(#paint0_linear_140_194)"/>
<path d="M73.9944 40.4991C73.9944 26.418 62.5794 15.0029 48.4982 15.0029C34.4171 15.0029 23.0021 26.418 23.0021 40.4991C23.0021 54.5802 34.4171 65.9953 48.4982 65.9953C62.5794 65.9953 73.9944 54.5802 73.9944 40.4991Z" fill="#F9F9F9"/>
<path d="M67.196 40.4992C67.196 30.1729 58.8248 21.8017 48.4984 21.8017C38.172 21.8017 29.8008 30.1729 29.8008 40.4992C29.8008 50.8256 38.172 59.1968 48.4984 59.1968C58.8248 59.1968 67.196 50.8256 67.196 40.4992Z" fill="#C4D9F7"/>
<path d="M83.3429 21.2832C86.6566 21.2832 89.3429 18.5969 89.3429 15.2832C89.3429 11.9695 86.6566 9.2832 83.3429 9.2832C80.0292 9.2832 77.3429 11.9695 77.3429 15.2832C77.3429 18.5969 80.0292 21.2832 83.3429 21.2832Z" fill="#C4D9F7"/>
</g>
<defs>
<linearGradient id="paint0_linear_140_194" x1="48.7451" y1="117.485" x2="48.3651" y2="-1.51374" gradientUnits="userSpaceOnUse">
<stop offset="0.31" stop-color="#C4D9F7"/>
<stop offset="0.75" stop-color="#B9C4E0"/>
<stop offset="0.91" stop-color="#B5BCD8"/>
</linearGradient>
<clipPath id="clip0_140_194">
<rect width="95.1143" height="80" fill="white" transform="translate(0.942871 0.5)"/>
</clipPath>
</defs>
</svg>
