<svg width="179" height="44" viewBox="0 0 179 44" fill="none" xmlns="http://www.w3.org/2000/svg">
<path d="M12.9456 44L0 0H10.2679L17.8582 30.7871H18.2566L26.5771 0H35.4288L43.7493 30.8301H44.1255L51.7158 0H61.9838L49.0382 44H39.8546L31.18 14.9746H30.8259L22.1513 44H12.9456Z" fill="currentColor"/>
<path d="M66.8339 44V0H84.5815C94.8936 0 100.802 5.65039 100.802 14.3301C100.802 20.3672 97.9696 24.7285 92.7914 26.877L102.44 44H92.0168L83.4086 28.3594H76.2388V44H66.8339ZM76.2388 20.9688H82.8554C88.4319 20.9688 91.1317 18.7344 91.1317 14.3301C91.1317 9.92578 88.4319 7.49805 82.8332 7.49805H76.2388V20.9688Z" fill="currentColor"/>
<path d="M105.533 7.5625V0H142.644V7.5625H128.769V44H119.453V7.5625H105.533Z" fill="currentColor"/>
<path d="M148.506 44V0H178.911V7.5625H157.911V18.2187H177.34V25.7598H157.911V36.4375H179V44H148.506Z" fill="currentColor"/>
</svg>
